<svg width="54" height="53" viewBox="0 0 54 53" fill="none" xmlns="http://www.w3.org/2000/svg">
<path d="M3.8125 20.0958C3.8125 14.2211 3.8125 11.2838 4.9558 9.03991C5.96147 7.06617 7.56617 5.46147 9.53991 4.4558C11.7838 3.3125 14.7211 3.3125 20.5958 3.3125H33.4042C39.2789 3.3125 42.2162 3.3125 44.4601 4.4558C46.4338 5.46147 48.0385 7.06617 49.0442 9.03991C50.1875 11.2838 50.1875 14.2211 50.1875 20.0958V32.9042C50.1875 38.7789 50.1875 41.7162 49.0442 43.9601C48.0385 45.9338 46.4338 47.5385 44.4601 48.5442C42.2162 49.6875 39.2789 49.6875 33.4042 49.6875H20.5958C14.7211 49.6875 11.7838 49.6875 9.53991 48.5442C7.56617 47.5385 5.96147 45.9338 4.9558 43.9601C3.8125 41.7162 3.8125 38.7789 3.8125 32.9042V20.0958Z" fill="#001E36"/>
<path d="M13.75 37.2925V16.8994C13.75 16.7607 13.808 16.6814 13.9432 16.6814C15.9401 16.6814 17.936 16.5625 19.9333 16.5625C23.1743 16.5625 26.6836 17.6707 27.9137 21.0613C28.2035 21.8936 28.3581 22.7458 28.3581 23.6377C28.3581 25.342 27.9717 26.7491 27.1988 27.859C25.0397 30.9592 21.2975 30.911 17.9431 30.911V37.2727C17.9693 37.461 17.8088 37.5502 17.6532 37.5502H13.9819C13.8273 37.5502 13.75 37.4709 13.75 37.2925ZM17.9624 20.5064V27.1653C19.2924 27.2628 20.6843 27.2733 21.9622 26.8482C23.3731 26.4413 24.1457 25.22 24.1457 23.7566C24.185 22.5096 23.5054 21.3131 22.3487 20.8631C21.0861 20.3381 19.3253 20.3067 17.9624 20.5064Z" fill="#31A8FF"/>
<path d="M40.4101 25.8497C39.8254 25.5416 39.2027 25.3162 38.559 25.1796C37.7318 24.985 34.4693 24.3033 34.4681 26.0092C34.497 26.9616 36.0088 27.4282 36.6768 27.7003C39.0218 28.5054 41.6755 29.9445 41.6234 32.8375C41.6951 36.4389 38.2057 37.8785 35.2147 37.8789C33.6576 37.895 32.0355 37.6538 30.6104 36.9854C30.4744 36.9134 30.3868 36.7594 30.3927 36.6025V33.1565C30.3773 33.0184 30.5256 32.8976 30.6415 32.997C32.0378 33.8414 33.6928 34.2514 35.308 34.2733C36.0211 34.2733 37.4342 34.2042 37.4235 33.1565C37.4235 32.1512 35.733 31.6889 35.0591 31.4335C34.0823 31.0848 33.1561 30.6018 32.3059 29.9977C31.1177 29.1502 30.3724 27.7913 30.3927 26.2964C30.3857 22.9054 33.5976 21.3834 36.4902 21.3826C37.8425 21.3715 39.2946 21.4716 40.5534 22.0208C40.7344 22.0741 40.7719 22.2647 40.7712 22.4356V25.6583C40.7827 25.8583 40.5605 25.9264 40.4101 25.8497Z" fill="#31A8FF"/>
</svg>
