<svg width="54" height="53" viewBox="0 0 54 53" fill="none" xmlns="http://www.w3.org/2000/svg">
<path d="M3.8125 20.0958C3.8125 14.2211 3.8125 11.2838 4.9558 9.03991C5.96147 7.06617 7.56617 5.46147 9.53991 4.4558C11.7838 3.3125 14.7211 3.3125 20.5958 3.3125H33.4042C39.2789 3.3125 42.2162 3.3125 44.4601 4.4558C46.4338 5.46147 48.0385 7.06617 49.0442 9.03991C50.1875 11.2838 50.1875 14.2211 50.1875 20.0958V32.9042C50.1875 38.7789 50.1875 41.7162 49.0442 43.9601C48.0385 45.9338 46.4338 47.5385 44.4601 48.5442C42.2162 49.6875 39.2789 49.6875 33.4042 49.6875H20.5958C14.7211 49.6875 11.7838 49.6875 9.53991 48.5442C7.56617 47.5385 5.96147 45.9338 4.9558 43.9601C3.8125 41.7162 3.8125 38.7789 3.8125 32.9042V20.0958Z" fill="#013301"/>
<path d="M10.4386 37.2067V16.9135C10.4258 16.7818 10.5274 16.6628 10.6563 16.6583C10.9674 16.6373 11.4237 16.6214 12.0252 16.6104C12.6265 16.5999 13.3316 16.5893 14.1406 16.5785C14.9495 16.568 15.8102 16.5627 16.7228 16.5625C19.2115 16.5625 21.2752 16.9986 22.9137 17.8707C24.4665 18.6598 25.7512 19.9108 26.6001 21.4603C27.4192 22.9814 27.8288 24.731 27.829 26.7091C27.8526 28.0932 27.6366 29.4706 27.1912 30.7773C26.8015 31.8959 26.2106 32.9296 25.449 33.8245C24.7282 34.6625 23.8831 35.3786 22.9447 35.9464C22.0141 36.5091 21.0078 36.9284 19.9581 37.1908C18.9303 37.4531 17.8753 37.587 16.8161 37.5896H14.4984C13.6788 37.5896 12.9166 37.5843 12.2118 37.5737C11.5065 37.5627 10.9777 37.5467 10.6252 37.5258C10.5008 37.5258 10.4385 37.4194 10.4386 37.2067ZM14.7317 20.4871V33.6969C15.3547 33.6969 15.9752 33.7615 16.5983 33.7607C17.5392 33.7732 18.4754 33.6222 19.3671 33.314C20.1659 33.0357 20.894 32.5778 21.4981 31.9739C22.106 31.3516 22.5732 30.6 22.8669 29.7722C23.2015 28.8212 23.3649 27.8158 23.3492 26.8049C23.3682 25.8522 23.2098 24.9046 22.8825 24.0129C22.5907 23.2437 22.1272 22.5553 21.5293 22.0028C20.9185 21.4492 20.1961 21.0406 19.4137 20.8062C18.5401 20.5431 17.6333 20.4141 16.7228 20.4234C16.3076 20.4234 15.9602 20.4287 15.6806 20.4393C15.4005 20.4503 15.0843 20.4662 14.7317 20.4871Z" fill="#33FF66"/>
<path d="M29.7303 37.2385V25.3688C29.7303 25.0074 29.7251 24.6032 29.7148 24.1564C29.7041 23.7097 29.6885 23.2842 29.6681 22.8801C29.6472 22.4762 29.6265 22.1571 29.6059 21.9228C29.5486 21.7724 29.6843 21.6566 29.8236 21.6676H33.0591C33.6427 21.6479 33.7412 22.5188 33.7747 22.9758C34.3761 22.4353 35.0732 22.0183 35.8279 21.7473C36.5783 21.4809 37.367 21.3461 38.1611 21.3485C38.7795 21.3514 39.3935 21.4537 39.981 21.6516C40.6592 21.8741 41.2778 22.255 41.788 22.7644C42.2981 23.2738 42.686 23.8978 42.921 24.5871C43.232 25.4062 43.3876 26.4645 43.3876 27.7619V37.2385C43.3876 37.4299 43.3046 37.5257 43.1387 37.5257H39.3744C39.1958 37.5519 39.0377 37.3897 39.0633 37.2066V28.1448C39.0818 27.5883 38.9864 27.034 38.7833 26.5175C37.9677 24.5592 35.3161 24.9891 34.0546 26.1984V37.2385C34.0546 37.4299 33.9716 37.5256 33.8057 37.5256H30.0103C29.8496 37.5492 29.7074 37.4033 29.7303 37.2385Z" fill="#33FF66"/>
</svg>
