<svg width="54" height="53" viewBox="0 0 54 53" fill="none" xmlns="http://www.w3.org/2000/svg">
<path d="M3.8125 20.0958C3.8125 14.2211 3.8125 11.2838 4.9558 9.03991C5.96147 7.06617 7.56617 5.46147 9.53991 4.4558C11.7838 3.3125 14.7211 3.3125 20.5958 3.3125H33.4042C39.2789 3.3125 42.2162 3.3125 44.4601 4.4558C46.4338 5.46147 48.0385 7.06617 49.0442 9.03991C50.1875 11.2838 50.1875 14.2211 50.1875 20.0958V32.9042C50.1875 38.7789 50.1875 41.7162 49.0442 43.9601C48.0385 45.9338 46.4338 47.5385 44.4601 48.5442C42.2162 49.6875 39.2789 49.6875 33.4042 49.6875H20.5958C14.7211 49.6875 11.7838 49.6875 9.53991 48.5442C7.56617 47.5385 5.96147 45.9338 4.9558 43.9601C3.8125 41.7162 3.8125 38.7789 3.8125 32.9042V20.0958Z" fill="#00005B"/>
<path d="M23.3386 32.4026H16.1522L14.6901 37.07C14.6495 37.2431 14.4901 37.3657 14.3167 37.3572H10.6769C10.4693 37.3572 10.3967 37.2402 10.4591 37.0062L16.6811 18.7034C16.7433 18.512 16.8055 18.3249 16.8678 18.08C16.9492 17.6543 16.9908 17.2216 16.9922 16.7878C16.9744 16.6596 17.085 16.5462 17.21 16.5644H22.1564C22.3013 16.5644 22.3843 16.6176 22.4053 16.724L29.4673 37.0381C29.5295 37.251 29.4672 37.3574 29.2806 37.3572H25.2363C25.0944 37.3733 24.959 37.2761 24.9252 37.1339L23.3386 32.4026ZM17.2722 28.4672H22.1875C21.3799 25.7076 20.4686 22.9842 19.7299 20.2031C18.8928 23.088 18.1199 25.7635 17.2722 28.4672Z" fill="#9999FF"/>
<path d="M34.7195 30.6004C35.0055 32.9703 36.9956 34.1002 39.1993 34.0521C40.4419 34.0276 41.77 33.8348 42.9311 33.3648C43.0346 33.2801 43.0867 33.333 43.0867 33.5244V36.5556C43.0965 36.7133 43.0306 36.8542 42.8999 36.9385C41.4568 37.5941 39.8001 37.7918 38.2349 37.7667C33.5679 37.7667 30.3628 34.4783 30.3641 29.6941C30.3519 25.1602 33.2932 21.3353 37.8615 21.3353C41.734 21.2349 44.4149 24.3353 44.4258 28.1944C44.4258 28.8973 44.3865 29.6026 44.3013 30.3003C44.2848 30.4441 44.1624 30.5556 44.0213 30.5556C40.9285 30.5556 37.8207 30.6004 34.7195 30.6004ZM34.7195 27.6937C36.4431 27.6937 38.1767 27.7546 39.8992 27.6777C40.1581 27.6512 40.3504 27.6021 40.3504 27.3329C40.3144 25.9022 39.1071 24.7256 37.7061 24.7803C36.0132 24.6754 34.9299 26.1043 34.7195 27.6937Z" fill="#9999FF"/>
</svg>
