<svg width="54" height="53" viewBox="0 0 54 53" fill="none" xmlns="http://www.w3.org/2000/svg">
<path d="M3.8125 20.0958C3.8125 14.2211 3.8125 11.2838 4.9558 9.03991C5.96147 7.06617 7.56617 5.46147 9.53991 4.4558C11.7838 3.3125 14.7211 3.3125 20.5958 3.3125H33.4042C39.2789 3.3125 42.2162 3.3125 44.4601 4.4558C46.4338 5.46147 48.0385 7.06617 49.0442 9.03991C50.1875 11.2838 50.1875 14.2211 50.1875 20.0958V32.9042C50.1875 38.7789 50.1875 41.7162 49.0442 43.9601C48.0385 45.9338 46.4338 47.5385 44.4601 48.5442C42.2162 49.6875 39.2789 49.6875 33.4042 49.6875H20.5958C14.7211 49.6875 11.7838 49.6875 9.53991 48.5442C7.56617 47.5385 5.96147 45.9338 4.9558 43.9601C3.8125 41.7162 3.8125 38.7789 3.8125 32.9042V20.0958Z" fill="#330000"/>
<path d="M26.2851 32.4563H19.0988L17.6366 37.1148C17.596 37.2879 17.4366 37.4105 17.2633 37.402H13.6234C13.4159 37.402 13.3433 37.285 13.4057 37.051L19.6276 18.6722C19.6899 18.4808 19.7521 18.2628 19.8143 18.0181C19.8957 17.5924 19.9374 17.1597 19.9388 16.7259C19.9209 16.5978 20.0336 16.4845 20.1565 16.5025H25.1029C25.2479 16.5025 25.3308 16.5557 25.3518 16.6621L32.4138 37.0829C32.476 37.2958 32.4138 37.4022 32.2271 37.402H28.1828C28.041 37.4181 27.9055 37.3209 27.8717 37.1787L26.2851 32.4563ZM20.2187 28.436H25.1341C24.3265 25.6764 23.4151 22.953 22.6764 20.1719C21.8795 22.9577 21.0099 25.7323 20.2187 28.436Z" fill="#FF9A00"/>
<path d="M36.6133 19.8846C36.296 19.8977 35.9795 19.8419 35.6847 19.721C35.3898 19.6 35.1232 19.4166 34.9022 19.1827C34.6819 18.9386 34.5107 18.6523 34.3985 18.3402C34.2864 18.0281 34.2355 17.6963 34.2489 17.3639C34.2375 17.0349 34.294 16.7071 34.4147 16.4019C34.5353 16.0968 34.7173 15.8212 34.9488 15.5931C35.1781 15.3673 35.4488 15.1905 35.7452 15.0727C36.0415 14.955 36.3577 14.8987 36.6754 14.9071C37.4221 14.9071 38.008 15.1357 38.4332 15.5931C38.6478 15.8307 38.8146 16.1095 38.924 16.4134C39.0334 16.7172 39.0833 17.0403 39.0709 17.3639C39.0839 17.6976 39.0314 18.0305 38.9165 18.343C38.8016 18.6554 38.6267 18.941 38.402 19.1827C38.1673 19.42 37.8872 19.6049 37.5793 19.7257C37.2714 19.8465 36.9425 19.9007 36.6133 19.8846ZM34.4666 37.0828V21.831C34.4666 21.6396 34.5493 21.5438 34.7155 21.5438H38.5421C38.7078 21.5438 38.7908 21.6395 38.791 21.831V37.0828C38.791 37.2957 38.708 37.4021 38.5421 37.4019H34.7466C34.56 37.4019 34.4667 37.2955 34.4666 37.0828Z" fill="#FF9A00"/>
</svg>
