<svg width="54" height="53" viewBox="0 0 54 53" fill="none" xmlns="http://www.w3.org/2000/svg">
<path d="M3.8125 20.0958C3.8125 14.2211 3.8125 11.2838 4.9558 9.03991C5.96147 7.06617 7.56617 5.46147 9.53991 4.4558C11.7838 3.3125 14.7211 3.3125 20.5958 3.3125H33.4042C39.2789 3.3125 42.2162 3.3125 44.4601 4.4558C46.4338 5.46147 48.0385 7.06617 49.0442 9.03991C50.1875 11.2838 50.1875 14.2211 50.1875 20.0958V32.9042C50.1875 38.7789 50.1875 41.7162 49.0442 43.9601C48.0385 45.9338 46.4338 47.5385 44.4601 48.5442C42.2162 49.6875 39.2789 49.6875 33.4042 49.6875H20.5958C14.7211 49.6875 11.7838 49.6875 9.53991 48.5442C7.56617 47.5385 5.96147 45.9338 4.9558 43.9601C3.8125 41.7162 3.8125 38.7789 3.8125 32.9042V20.0958Z" fill="#00005B"/>
<path d="M13.75 36.0991V15.2507C13.75 15.1089 13.8081 15.0278 13.9438 15.0278C15.9466 15.0278 17.9485 14.9062 19.9518 14.9062C23.2025 14.9062 26.7222 16.0392 27.956 19.5055C28.2467 20.3564 28.4017 21.2276 28.4017 22.1394C28.4017 23.8818 28.0141 25.3203 27.2389 26.4549C25.0734 29.6243 21.3201 29.5751 17.9556 29.5751V36.0788C17.9819 36.2714 17.8209 36.3625 17.6649 36.3625H13.9826C13.8275 36.3625 13.75 36.2814 13.75 36.0991ZM17.975 18.9382V25.7458C19.309 25.8454 20.705 25.8562 21.9868 25.4216C23.4018 25.0056 24.1768 23.757 24.1768 22.2609C24.2161 20.9861 23.5346 19.7629 22.3744 19.3029C21.108 18.7662 19.3419 18.734 17.975 18.9382Z" fill="#9999FF"/>
<path d="M31.0289 20.226H34.43C34.6176 20.2277 34.786 20.3631 34.8356 20.5522C35.0849 21.1308 35.1156 21.8285 35.1165 22.4531C35.6997 21.7431 36.4031 21.1516 37.1914 20.708C38.0369 20.2078 38.9954 19.9543 39.9667 19.974C40.1279 19.9499 40.2706 20.0991 40.2475 20.2676V24.2146C40.2475 24.367 40.1432 24.443 39.9355 24.443C38.4959 24.3391 36.2546 24.6947 35.2086 25.8782V36.1411C35.2086 36.3368 35.1254 36.4347 34.959 36.4347H31.3097C31.1305 36.4616 30.9723 36.2929 30.9976 36.1084V24.9649C30.9976 23.4717 31.0286 21.9335 30.8105 20.4544C30.7769 20.3183 30.9015 20.1917 31.0289 20.226Z" fill="#9999FF"/>
</svg>
