<svg width="40" height="39" viewBox="0 0 40 39" fill="none" xmlns="http://www.w3.org/2000/svg">
<circle cx="20" cy="19.5" r="17.0625" fill="white"/>
<path fill-rule="evenodd" clip-rule="evenodd" d="M8.88013 26.7631V11.8749H15.7627C17.9734 11.8749 19.7656 13.667 19.7656 15.8777C19.7656 17.2825 19.3336 18.1527 17.7498 19.0454C19.6451 19.909 20.1715 21.1059 20.1715 22.7754C20.1715 25.0338 18.1651 26.7631 15.9067 26.7631H8.88013ZM11.7925 14.3394V17.9194H15.2012C15.2012 17.9194 16.858 17.9194 16.858 16.1294C16.858 14.3394 15.2012 14.3394 15.2012 14.3394H11.7925ZM11.7925 24.2417V20.376H15.4488C16.0391 20.376 17.2769 20.6807 17.2769 22.5088C17.2769 23.8647 16.0582 24.229 15.4488 24.2417H11.7925Z" fill="#150822"/>
<path fill-rule="evenodd" clip-rule="evenodd" d="M26.3985 15.9771C24.3038 15.9771 21.1998 17.4814 21.1998 21.4805C21.1998 23.9155 22.5328 27.041 26.5318 27.041C29.731 27.041 31.2037 24.6924 31.5401 23.5181H28.5313C28.379 24.0513 27.7886 24.6416 26.5318 24.6416C24.7037 24.6416 24.0562 23.0801 23.961 22.2993H31.5401V21.4805C31.5401 17.4814 28.4932 15.9771 26.3985 15.9771ZM26.3985 18.2622C24.6923 18.2622 24.0626 19.6714 23.961 20.376H28.5313C28.5313 19.6714 28.1048 18.2622 26.3985 18.2622Z" fill="#150822"/>
<path d="M22.7613 12.7207V14.5679H29.9405V12.7207H22.7613Z" fill="#150822"/>
</svg>
