<svg width="34" height="33" viewBox="0 0 34 33" fill="none" xmlns="http://www.w3.org/2000/svg">
<g clip-path="url(#clip0_313_2173)">
<path d="M17 0C7.88738 0 0.5 7.38738 0.5 16.5C0.5 24.2378 5.82752 30.7309 13.0143 32.5142V21.5424H9.61196V16.5H13.0143V14.3273C13.0143 8.71134 15.5559 6.1083 21.0696 6.1083C22.115 6.1083 23.9188 6.31356 24.6567 6.51816V11.0887C24.2673 11.0477 23.5908 11.0273 22.7506 11.0273C20.0452 11.0273 18.9998 12.0523 18.9998 14.7167V16.5H24.3894L23.4634 21.5424H18.9998V32.8792C27.1699 31.8925 33.5007 24.9361 33.5007 16.5C33.5 7.38738 26.1126 0 17 0Z" fill="white"/>
</g>
<defs>
<clipPath id="clip0_313_2173">
<rect width="33" height="33" fill="white" transform="translate(0.5)"/>
</clipPath>
</defs>
</svg>
