<svg width="54" height="53" viewBox="0 0 54 53" fill="none" xmlns="http://www.w3.org/2000/svg">
<path fill-rule="evenodd" clip-rule="evenodd" d="M27 26.5C27 22.8411 29.9661 19.875 33.625 19.875C37.2839 19.875 40.25 22.8411 40.25 26.5C40.25 30.1589 37.2839 33.125 33.625 33.125C29.9661 33.125 27 30.1589 27 26.5Z" fill="#1ABCFE"/>
<path fill-rule="evenodd" clip-rule="evenodd" d="M13.75 39.75C13.75 36.0911 16.7161 33.125 20.375 33.125H27V39.75C27 43.4089 24.0339 46.375 20.375 46.375C16.7161 46.375 13.75 43.4089 13.75 39.75Z" fill="#0ACF83"/>
<path fill-rule="evenodd" clip-rule="evenodd" d="M27 6.625V19.875H33.625C37.2839 19.875 40.25 16.9089 40.25 13.25C40.25 9.59111 37.2839 6.625 33.625 6.625H27Z" fill="#FF7262"/>
<path fill-rule="evenodd" clip-rule="evenodd" d="M13.75 13.25C13.75 16.9089 16.7161 19.875 20.375 19.875H27V6.625H20.375C16.7161 6.625 13.75 9.59111 13.75 13.25Z" fill="#F24E1E"/>
<path fill-rule="evenodd" clip-rule="evenodd" d="M13.75 26.5C13.75 30.1589 16.7161 33.125 20.375 33.125H27V19.875H20.375C16.7161 19.875 13.75 22.8411 13.75 26.5Z" fill="#A259FF"/>
</svg>
