<svg width="34" height="33" viewBox="0 0 34 33" fill="none" xmlns="http://www.w3.org/2000/svg">
<path d="M24.5625 8.9375H24.5762M10.125 2.75H23.875C27.672 2.75 30.75 5.82804 30.75 9.625V23.375C30.75 27.172 27.672 30.25 23.875 30.25H10.125C6.32804 30.25 3.25 27.172 3.25 23.375V9.625C3.25 5.82804 6.32804 2.75 10.125 2.75ZM22.5003 15.6337C22.67 16.7781 22.4745 17.9468 21.9417 18.9736C21.4089 20.0005 20.5658 20.8332 19.5325 21.3533C18.4992 21.8734 17.3281 22.0544 16.186 21.8707C15.0438 21.6869 13.9887 21.1476 13.1707 20.3296C12.3527 19.5116 11.8134 18.4564 11.6296 17.3143C11.4458 16.1721 11.6269 15.0011 12.147 13.9678C12.6671 12.9344 13.4998 12.0914 14.5266 11.5586C15.5535 11.0258 16.7222 10.8303 17.8665 11C19.0338 11.1731 20.1144 11.717 20.9488 12.5514C21.7833 13.3858 22.3272 14.4665 22.5003 15.6337Z" stroke="#F1F5F9" stroke-width="2.75" stroke-linecap="round" stroke-linejoin="round"/>
</svg>
