<svg width="34" height="33" viewBox="0 0 34 33" fill="none" xmlns="http://www.w3.org/2000/svg">
<g clip-path="url(#clip0_313_2174)">
<path d="M31.0572 0H2.93633C1.58926 0 0.5 1.06348 0.5 2.37832V30.6152C0.5 31.9301 1.58926 33 2.93633 33H31.0572C32.4043 33 33.5 31.9301 33.5 30.6217V2.37832C33.5 1.06348 32.4043 0 31.0572 0ZM10.2904 28.1209H5.39199V12.3686H10.2904V28.1209ZM7.84121 10.2223C6.26856 10.2223 4.99883 8.95254 4.99883 7.38633C4.99883 5.82012 6.26856 4.55039 7.84121 4.55039C9.40742 4.55039 10.6771 5.82012 10.6771 7.38633C10.6771 8.94609 9.40742 10.2223 7.84121 10.2223ZM28.6209 28.1209H23.7289V20.4639C23.7289 18.6398 23.6967 16.2873 21.183 16.2873C18.6371 16.2873 18.2504 18.2789 18.2504 20.335V28.1209H13.3648V12.3686H18.057V14.5213H18.1215C18.7725 13.2838 20.3709 11.9754 22.7492 11.9754C27.7057 11.9754 28.6209 15.2367 28.6209 19.4777V28.1209Z" fill="white"/>
</g>
<defs>
<clipPath id="clip0_313_2174">
<rect width="33" height="33" fill="white" transform="translate(0.5)"/>
</clipPath>
</defs>
</svg>
