<svg width="74" height="24" viewBox="0 0 74 24" fill="none" xmlns="http://www.w3.org/2000/svg">
<g clip-path="url(#clip0_348_1778)">
<path d="M18.8824 3.57227C18.8824 6.78662 18.8824 6.78662 18.8824 3.57227C20.721 8.3938 22.2115 9.88432 27.0331 11.723C23.8187 11.7229 23.8187 11.723 27.0331 11.723C22.2116 13.5616 20.721 15.0521 18.8824 19.8737C18.8824 16.6593 18.8824 16.6593 18.8824 19.8737" fill="white"/>
<path d="M18.9627 3.57227C18.9627 6.78662 18.9627 6.78662 18.9627 3.57227C17.124 8.3938 15.6335 9.88432 10.812 11.723C14.0263 11.7229 14.0263 11.723 10.812 11.723C15.6335 13.5616 17.124 15.0521 18.9626 19.8737C18.9626 16.6593 18.9626 16.6593 18.9626 19.8737" fill="white"/>
<path d="M0.200012 0.200928H4.80024V14.1586H10.812V18.4976H0.200012V0.200928Z" fill="white"/>
<path d="M33.1843 16.1973L32.0081 17.8964H36.9479C40.1106 17.8964 42.0189 19.6213 42.0189 23.5945H37.9412C37.9412 22.4704 37.3924 21.7649 35.9287 21.7649H27.277V18.0531L29.7602 14.4199C28.6624 13.2962 28.0087 11.7538 28.0087 9.92425C28.0087 6.36943 30.7794 3.5725 34.308 3.5725C35.2492 3.5725 36.1117 3.75577 36.8958 4.1216L38.4378 1.87378L41.6268 3.96457L39.7186 6.60482C40.2936 7.54563 40.6335 8.69561 40.6335 9.92426C40.6335 13.4008 37.9153 16.2757 34.308 16.2757C33.9159 16.2757 33.5501 16.2498 33.1843 16.1973ZM36.6604 9.89801C36.6604 8.56513 35.615 7.51938 34.308 7.51938C33.001 7.51938 31.9818 8.56513 31.9818 9.89801C31.9818 11.2571 33.0013 12.3029 34.308 12.3029C35.6412 12.3029 36.6604 11.2571 36.6604 9.89801Z" fill="white"/>
<path d="M53.3098 17.3212C52.3165 18.3666 50.905 18.9153 49.1279 18.9153C45.1285 18.9153 42.1228 15.6483 42.1228 11.2569C42.1228 6.86547 45.1285 3.57227 49.1279 3.57227C50.905 3.57227 52.3165 4.12137 53.3098 5.193V3.99056H57.6225V18.4974H53.3098V17.3212ZM53.1531 11.2569C53.1531 9.32281 51.7153 7.91122 49.8596 7.91122C48.0038 7.91122 46.5663 9.3228 46.5663 11.2569C46.5663 13.1651 48.0038 14.6026 49.8596 14.6026C51.7153 14.6026 53.1531 13.1651 53.1531 11.2569Z" fill="white"/>
<path d="M67.0824 7.83327C65.5141 7.83327 64.4687 8.87866 64.4687 10.3948V18.4978H59.999V3.99095H64.4687V5.19338C65.3837 4.2001 66.6903 3.59888 68.1281 3.59888C71.4997 3.59888 73.8 6.29123 73.8 10.2119V18.4978H69.3564V10.3427C69.3564 8.85278 68.4156 7.83327 67.0824 7.83327Z" fill="white"/>
</g>
<defs>
<clipPath id="clip0_348_1778">
<rect width="73.6" height="23" fill="white" transform="translate(0.200012 0.5)"/>
</clipPath>
</defs>
</svg>
