<svg width="525" height="263" viewBox="0 0 525 263" fill="none" xmlns="http://www.w3.org/2000/svg">
<g clip-path="url(#clip0_161_3121)">
<path d="M174.81 156.596C173.955 156.252 173.101 155.904 172.247 155.553C170.266 154.737 168.347 153.925 166.545 153.14C164.697 152.333 162.9 151.525 161.206 150.736C159.488 149.937 157.809 149.126 156.214 148.328C154.614 147.527 153.046 146.711 151.553 145.902C150.055 145.09 148.592 144.263 147.202 143.443C145.812 142.622 144.445 141.778 143.141 140.934C141.835 140.09 140.559 139.224 139.345 138.36C138.131 137.496 136.936 136.603 135.793 135.704C134.65 134.806 133.528 133.878 132.457 132.946C131.383 132.011 130.325 131.042 129.313 130.065C128.298 129.085 127.295 128.066 126.332 127.036C125.369 126.004 124.413 124.927 123.491 123.834C122.571 122.741 121.655 121.597 120.767 120.431C119.885 119.274 119.001 118.055 118.14 116.807C117.285 115.568 116.426 114.264 115.588 112.93C114.758 111.608 113.919 110.212 113.098 108.782C112.284 107.366 111.461 105.871 110.651 104.337C109.85 102.82 109.036 101.218 108.233 99.5737C107.44 97.9534 106.632 96.2386 105.83 94.4792C105.034 92.7323 104.226 90.8985 103.425 89.0283C102.638 87.1879 101.825 85.2302 101.007 83.2095C100.367 81.6289 99.7491 80.0401 99.1307 78.4519L98.8264 77.6695C97.4843 74.2257 94.2285 72.0001 90.5327 72.0001C86.8134 72.0001 83.5506 74.2442 82.2194 77.72C82.1205 77.9792 82.0205 78.2378 81.9184 78.4986C80.8996 81.1024 80.0623 83.1965 79.2842 85.0873C78.467 87.0733 77.6503 89.0022 76.8587 90.8186C76.049 92.6742 75.2356 94.4798 74.4423 96.1832C73.6371 97.9115 72.8226 99.5987 72.0222 101.196C71.2132 102.809 70.3922 104.384 69.5826 105.875C68.7653 107.379 67.9324 108.849 67.1071 110.244C66.2817 111.639 65.4324 113.01 64.5843 114.316C63.7345 115.626 62.8629 116.907 61.9925 118.124C61.1215 119.343 60.2217 120.542 59.3192 121.685C58.4178 122.825 57.4821 123.951 56.5394 125.029C55.5956 126.108 54.6175 127.168 53.6313 128.184C52.6473 129.198 51.6193 130.202 50.5766 131.17C49.535 132.136 48.4467 133.095 47.3415 134.02C46.2395 134.942 45.0838 135.861 43.9069 136.75C42.7322 137.639 41.4982 138.526 40.2409 139.387C38.9863 140.247 37.6675 141.108 36.32 141.948C34.9801 142.783 33.5674 143.624 32.121 144.449C30.6871 145.266 29.1727 146.093 27.6203 146.906C26.0881 147.709 24.4651 148.527 22.797 149.337C21.1436 150.139 19.4065 150.952 17.633 151.754C15.8807 152.547 14.0224 153.361 12.1098 154.174C10.6422 154.797 9.08715 155.443 7.48857 156.093C2.93905 157.943 -0.000488281 162.31 -0.000488281 167.217C-0.000488281 172.129 2.94283 176.501 7.49887 178.353C8.45136 178.741 9.40223 179.132 10.352 179.529C14.2723 181.165 17.7922 182.725 21.1131 184.298C24.5232 185.913 27.6024 187.482 30.5262 189.097C33.4494 190.712 36.2124 192.376 38.7395 194.043C41.2802 195.719 43.6987 197.475 45.9264 199.26C48.1575 201.048 50.2955 202.944 52.2821 204.896C54.2691 206.849 56.1947 208.946 58.0052 211.129C59.8168 213.314 61.5924 215.68 63.2817 218.161C64.9693 220.639 66.645 223.339 68.2643 226.189C69.8883 229.046 71.4635 232.055 73.0795 235.388C74.6606 238.648 76.2195 242.09 77.8447 245.912C78.8874 248.363 79.8605 250.815 80.8907 253.411C81.3471 254.561 81.8035 255.71 82.267 256.861C83.6313 260.247 86.8725 262.435 90.5233 262.435C94.1964 262.435 97.4445 260.229 98.798 256.818C100.573 252.346 102.409 247.723 104.346 243.285C105.987 239.536 107.565 236.164 109.168 232.976C110.806 229.724 112.41 226.783 114.072 223.986C115.726 221.207 117.444 218.571 119.18 216.152C120.916 213.733 122.749 211.422 124.627 209.283C126.504 207.148 128.508 205.091 130.583 203.173C132.662 201.251 134.903 199.382 137.246 197.616C139.588 195.851 142.137 194.109 144.824 192.438C147.526 190.758 150.368 189.141 153.512 187.496C156.595 185.882 159.855 184.302 163.479 182.663C166.975 181.083 170.685 179.506 174.823 177.842C179.184 176.087 182.001 171.918 182 167.221C181.998 162.521 179.177 158.35 174.81 156.596Z" fill="white"/>
<path d="M172.708 161.833C177.649 163.848 177.456 170.975 172.303 172.692C155.743 179.278 138.914 186.874 125.747 199.06C110.478 212.91 101.193 232.2 93.5163 251.074C93.5162 251.074 92.7593 252.867 92.7593 252.867L92.3809 253.764L92.1771 254.244C91.9869 254.712 91.5267 255.125 91.0238 255.258C90.1805 255.526 89.1383 255.011 88.8542 254.17L88.8099 254.057L88.4543 253.15C74.3783 216.114 61.2288 194.312 24.0244 177.294C21.8735 176.306 15.4718 173.549 13.3404 172.581C12.4453 172.169 10.6384 171.553 9.64087 170.99C6.72436 169.268 6.93295 164.562 10.0664 163.192C12.4209 162.149 14.9262 161.161 17.2625 160.089C21.8064 158.122 26.8909 155.641 31.2712 153.349C51.3925 142.702 65.0243 129.276 75.5851 109.094C80.0453 100.538 83.8684 91.5116 87.2928 82.4926L87.9905 80.6812L88.1582 80.2313L88.2633 79.9565C88.9573 78.1461 91.6888 77.8928 92.6514 79.6243C111.653 126.492 125.625 142.459 172.708 161.833ZM170.693 166.847C123.276 148.519 106.482 127.803 89.3615 81.5977C89.802 82.336 90.8013 82.4826 91.4419 81.8994C91.6 81.7591 91.7144 81.5798 91.7801 81.4178C91.8027 81.3545 91.76 81.4664 91.7533 81.4822L91.7071 81.5972C89.9691 85.8776 88.0517 90.4633 86.1629 94.7035C79.6909 109.032 71.9728 123.14 60.8943 134.464C51.7011 143.9 40.4137 151.026 28.637 156.769C24.1285 159.012 18.9911 161.262 14.3433 163.191L12.5323 163.933L11.6269 164.304L11.1742 164.489L10.9479 164.582C8.82492 165.359 8.50822 168.477 10.4734 169.65C10.8692 169.884 11.5486 170.14 12.1362 170.388C58.206 189.35 72.7183 207.694 91.0897 253.138C91.2162 253.441 91.0727 253.046 90.8958 252.968C90.547 252.723 90.0453 252.89 89.8914 253.261L90.0601 252.84C94.2085 242.279 98.4803 231.384 103.999 221.46C119.212 192.901 141.46 179.828 170.341 167.834C170.341 167.834 170.566 167.735 170.566 167.735C170.626 167.708 170.756 167.656 170.74 167.654C170.763 167.629 170.801 167.623 170.824 167.607C170.836 167.582 170.864 167.576 170.879 167.561C170.948 167.486 170.979 167.4 170.985 167.258C170.941 167.02 170.946 166.943 170.693 166.847Z" fill="#401766"/>
<path d="M67.2479 169.698C73.3289 169.698 78.2586 163.608 78.2586 156.096C78.2586 148.584 73.3289 142.494 67.2479 142.494C61.1668 142.494 56.2372 148.584 56.2372 156.096C56.2372 163.608 61.1668 169.698 67.2479 169.698Z" fill="#401766"/>
<path d="M66.8121 175.316C66.8121 178.234 64.4401 180.606 61.5246 180.606C58.6092 180.606 56.2372 178.231 56.2372 175.316C56.2372 172.4 58.6092 170.028 61.5246 170.028C64.4401 170.028 66.8121 172.397 66.8121 175.316Z" fill="#401766"/>
<path d="M70.2204 149.678C70.0619 147.208 68.01 146.28 65.7631 146.415C65.7584 146.415 65.7552 146.415 65.7489 146.418C62.8128 146.594 59.5408 148.585 59.6961 151.315C59.7326 151.976 59.9481 152.587 60.2966 153.089C60.8496 153.879 61.737 154.399 62.7827 154.399C64.0598 154.399 65.1516 153.626 65.6205 152.52C65.6744 152.499 65.7251 152.472 65.7727 152.448C66.1846 152.648 66.6441 152.765 67.1322 152.765C68.8371 152.765 70.3281 151.38 70.2204 149.678Z" fill="white"/>
<path d="M101.2 168.067C102.224 168.067 103.057 168.896 103.057 169.922C103.057 174.859 102.484 179.253 101.356 182.994C101.353 183.001 101.353 183.009 101.349 183.015C99.5399 189.025 96.3725 193.041 92.4239 194.333C91.5603 194.613 90.6873 194.752 89.8127 194.752C87.916 194.752 86.0305 194.094 84.3256 192.809C79.393 189.087 76.5615 180.745 76.5615 169.924C76.5615 168.898 77.3918 168.068 78.4185 168.068C79.4437 168.068 80.274 168.898 80.274 169.924C80.274 171.549 84.1069 173.292 89.8095 173.292C95.5122 173.292 99.3451 171.549 99.3451 169.924C99.3451 168.898 100.175 168.068 101.201 168.068L101.2 168.067Z" fill="#401766"/>
<path d="M91.2704 190.803C93.6726 190.02 95.8084 187.409 97.2598 183.545C97.206 183.528 97.1521 183.511 97.095 183.497C97.0444 183.485 96.9936 183.474 96.9398 183.464C96.8146 183.433 96.6894 183.406 96.5642 183.386C96.4565 183.366 96.3456 183.349 96.2347 183.335C96.2173 183.332 96.1998 183.329 96.184 183.329C96.1333 183.321 96.0826 183.314 96.0319 183.312C96.0113 183.309 95.9954 183.305 95.9749 183.305C95.8655 183.292 95.7578 183.285 95.65 183.278H95.6405C95.4884 183.268 95.3331 183.264 95.1778 183.264C94.9243 183.264 94.6724 183.278 94.422 183.302C94.3349 183.309 94.243 183.318 94.1558 183.333C94.0608 183.343 93.9704 183.356 93.8754 183.377C93.7851 183.39 93.69 183.407 93.5997 183.427C93.5886 183.427 93.5823 183.427 93.5727 183.43C93.4602 183.454 93.3493 183.478 93.2416 183.508C93.137 183.531 93.0356 183.561 92.9342 183.592C92.8327 183.619 92.7282 183.653 92.6315 183.69C92.5285 183.724 92.4319 183.758 92.3336 183.798C92.2972 183.812 92.2623 183.825 92.229 183.839C92.1657 183.866 92.1007 183.893 92.0373 183.92C91.9755 183.946 91.9185 183.974 91.8614 184.001C91.7933 184.031 91.7252 184.065 91.6586 184.099C91.6412 184.106 91.6254 184.113 91.6111 184.122C91.5176 184.166 91.4226 184.217 91.3323 184.271C91.2483 184.318 91.1659 184.366 91.085 184.416C90.99 184.474 90.8965 184.534 90.8014 184.599C90.7349 184.643 90.6699 184.686 90.6097 184.734C90.5495 184.778 90.4893 184.822 90.4274 184.866C90.3324 184.94 90.2373 185.011 90.147 185.088C90.0804 185.146 90.0123 185.203 89.9442 185.26C89.8808 185.322 89.8126 185.383 89.7493 185.443C89.6209 185.565 89.4989 185.689 89.3769 185.821C89.293 185.909 89.2153 186 89.1408 186.091C89.068 186.179 88.9935 186.273 88.919 186.368C88.8525 186.459 88.7843 186.55 88.7162 186.644C88.713 186.647 88.7099 186.654 88.7067 186.661C88.6385 186.756 88.5736 186.854 88.5134 186.951C88.45 187.049 88.3898 187.147 88.3343 187.248C88.3312 187.252 88.3248 187.259 88.3217 187.268C88.2837 187.336 88.244 187.407 88.2092 187.478C88.1616 187.562 88.1189 187.646 88.0776 187.734C88.0206 187.848 87.9698 187.967 87.9192 188.085C87.8685 188.203 87.8209 188.321 87.7766 188.442C87.7338 188.561 87.6926 188.686 87.653 188.807C87.615 188.932 87.5785 189.056 87.5484 189.182C87.4802 189.431 87.4295 189.691 87.3884 189.951C87.3693 190.082 87.3519 190.218 87.3392 190.356C88.6243 191.075 89.9632 191.234 91.2704 190.804L91.2704 190.803Z" fill="white"/>
<path d="M112.468 142.494C118.541 142.494 123.482 148.595 123.482 156.096C123.482 163.597 118.538 169.698 112.468 169.698C106.398 169.698 101.457 163.598 101.457 156.096C101.457 148.598 106.394 142.494 112.468 142.494Z" fill="#401766"/>
<path d="M110.986 146.415C110.983 146.415 110.977 146.418 110.977 146.418H110.969C108.033 146.597 104.764 148.585 104.919 151.315C104.956 151.971 105.168 152.583 105.517 153.082V153.086C106.073 153.879 106.96 154.399 108.003 154.399C109.281 154.399 110.375 153.626 110.844 152.52C110.898 152.499 110.945 152.472 110.996 152.448C111.408 152.648 111.867 152.765 112.357 152.765C114.06 152.765 115.551 151.38 115.444 149.678C115.285 147.208 113.233 146.28 110.986 146.415Z" fill="white"/>
<path d="M123.482 175.316C123.482 178.234 121.106 180.606 118.191 180.606C115.276 180.606 112.904 178.231 112.904 175.316C112.904 172.4 115.276 170.028 118.191 170.028C121.106 170.028 123.482 172.397 123.482 175.316Z" fill="#401766"/>
</g>
<g clip-path="url(#clip1_161_3121)">
<path d="M131.114 183C134.359 183 137.061 181.466 139.146 178.439C140.49 176.489 141.737 174.658 142.908 172.94C151.275 160.66 155.094 155.054 161.809 152.54C169.281 149.741 182.84 149.645 207.455 149.472C213.067 149.432 219.426 149.387 226.422 149.305H467.667C499.28 149.305 525 127.881 525 101.548V47.7571C525 21.4239 499.28 0 467.667 0H226.374C194.761 0 169.041 21.4239 169.041 47.7571V72.8327C169.041 88.8213 163.23 104.294 152.235 117.579C138.366 134.339 131.171 148.169 127.579 156.82C124.383 164.515 121.202 174.685 124.201 179.44C125.585 181.636 128.234 183 131.114 183Z" fill="white"/>
<path d="M226.374 143.387H467.667C495.407 143.387 517.895 124.655 517.895 101.548V47.757C517.895 24.6499 495.407 5.91791 467.667 5.91791H226.374C198.634 5.91791 176.146 24.6499 176.146 47.757V72.8325C176.146 90.0251 169.799 106.783 158.085 120.938C127.597 157.778 127.173 183.926 132.984 175.493C156.928 140.741 150.035 144.279 226.374 143.387Z" stroke="#401766" stroke-width="2.17735" stroke-miterlimit="10"/>
<path d="M204.18 58.22C201.4 58.22 199.5 56.5 199.68 53.7H201.22C201.04 55.52 202.34 56.76 204.18 56.76C205.94 56.76 207 55.76 207 54.38C207 50.8 200.1 52.34 200.1 47.46C200.1 45.3 201.7 43.78 204.2 43.78C206.9 43.78 208.54 45.38 208.3 47.84H206.74C206.86 46.26 205.84 45.24 204.18 45.24C202.64 45.24 201.7 46.16 201.7 47.46C201.7 50.92 208.6 49.68 208.6 54.38C208.6 56.64 206.86 58.22 204.18 58.22Z" fill="#401766"/>
<path d="M210.93 58V47.18H212.43V58H210.93ZM210.91 45.38V43.24H212.43V45.38H210.91Z" fill="#401766"/>
<path d="M223.13 58.12C220.93 58.12 219.77 56.76 219.77 54.72V44.26H221.27V47.18H224.57V48.64H221.27V54.6C221.27 55.98 222.07 56.64 223.25 56.64H224.57V58.12H223.13Z" fill="#401766"/>
<path d="M230.777 58.22C228.017 58.22 226.157 56.36 226.157 53.58V47.18H227.657V53.58C227.657 55.48 228.937 56.76 230.797 56.76C232.597 56.76 233.877 55.48 233.877 53.58V47.18H235.357V53.58C235.357 56.36 233.497 58.22 230.777 58.22Z" fill="#401766"/>
<path d="M251.647 58V56.18C250.687 57.42 249.207 58.22 247.427 58.22C244.267 58.22 241.887 55.74 241.887 52.6C241.887 49.44 244.267 46.96 247.427 46.96C249.207 46.96 250.687 47.76 251.647 49.02V47.18H253.147V58H251.647ZM247.527 56.8C249.847 56.8 251.647 55 251.647 52.6C251.647 50.18 249.847 48.38 247.527 48.38C245.187 48.38 243.387 50.18 243.387 52.6C243.387 55 245.187 56.8 247.527 56.8Z" fill="#401766"/>
<path d="M258.945 58.22C256.725 58.22 255.345 56.8 255.385 54.68H256.865C256.825 55.98 257.625 56.8 258.965 56.8C260.205 56.8 260.925 56.14 260.925 55.18C260.925 52.72 255.745 53.5 255.745 49.92C255.745 48.14 257.025 46.96 258.965 46.96C261.065 46.96 262.345 48.26 262.265 50.2H260.785C260.825 49.1 260.105 48.42 258.965 48.42C257.845 48.42 257.245 49.08 257.245 49.92C257.245 52.36 262.445 51.58 262.445 55.18C262.445 56.96 261.085 58.22 258.945 58.22Z" fill="#401766"/>
<path d="M278.346 58V56.18C277.386 57.42 275.906 58.22 274.126 58.22C270.966 58.22 268.586 55.74 268.586 52.6C268.586 49.44 270.966 46.96 274.126 46.96C275.886 46.96 277.366 47.74 278.326 49V43.24H279.806L279.846 58H278.346ZM274.226 56.8C276.466 56.8 278.206 55.12 278.346 52.86V52.32C278.206 50.04 276.466 48.38 274.226 48.38C271.886 48.38 270.086 50.18 270.086 52.6C270.086 55 271.886 56.8 274.226 56.8Z" fill="#401766"/>
<path d="M287.664 58.22C284.504 58.22 282.024 55.74 282.024 52.6C282.024 49.44 284.504 46.96 287.664 46.96C290.744 46.96 293.164 49.44 293.164 52.6C293.164 52.82 293.124 53.12 293.084 53.28H283.584C283.884 55.3 285.564 56.8 287.664 56.8C289.204 56.8 290.584 55.92 291.124 54.6H292.804C292.144 56.74 290.104 58.22 287.664 58.22ZM283.584 51.92H291.604C291.304 49.88 289.684 48.38 287.664 48.38C285.564 48.38 283.884 49.88 283.584 51.92Z" fill="#401766"/>
<path d="M298.124 58.22C295.904 58.22 294.524 56.8 294.564 54.68H296.044C296.004 55.98 296.804 56.8 298.144 56.8C299.384 56.8 300.104 56.14 300.104 55.18C300.104 52.72 294.924 53.5 294.924 49.92C294.924 48.14 296.204 46.96 298.144 46.96C300.244 46.96 301.524 48.26 301.444 50.2H299.964C300.004 49.1 299.284 48.42 298.144 48.42C297.024 48.42 296.424 49.08 296.424 49.92C296.424 52.36 301.624 51.58 301.624 55.18C301.624 56.96 300.264 58.22 298.124 58.22Z" fill="#401766"/>
<path d="M308.586 58V47.18H310.086V58H308.586ZM308.566 45.38V43.24H310.086V45.38H308.566Z" fill="#401766"/>
<path d="M322.018 58V56.18C321.058 57.42 319.578 58.22 317.798 58.22C314.638 58.22 312.258 55.74 312.258 52.6C312.258 49.44 314.638 46.96 317.798 46.96C319.558 46.96 321.038 47.74 321.998 49V43.24H323.478L323.518 58H322.018ZM317.898 56.8C320.138 56.8 321.878 55.12 322.018 52.86V52.32C321.878 50.04 320.138 48.38 317.898 48.38C315.558 48.38 313.758 50.18 313.758 52.6C313.758 55 315.558 56.8 317.898 56.8Z" fill="#401766"/>
<path d="M331.336 58.22C328.176 58.22 325.696 55.74 325.696 52.6C325.696 49.44 328.176 46.96 331.336 46.96C334.416 46.96 336.836 49.44 336.836 52.6C336.836 52.82 336.796 53.12 336.756 53.28H327.256C327.556 55.3 329.236 56.8 331.336 56.8C332.876 56.8 334.256 55.92 334.796 54.6H336.476C335.816 56.74 333.776 58.22 331.336 58.22ZM331.976 45.8H330.536L332.316 42.42H333.856L331.976 45.8ZM327.256 51.92H335.276C334.976 49.88 333.356 48.38 331.336 48.38C329.236 48.38 327.556 49.88 327.256 51.92Z" fill="#401766"/>
<path d="M343.816 58.22C340.656 58.22 338.176 55.74 338.176 52.6C338.176 49.44 340.656 46.96 343.816 46.96C346.896 46.96 349.316 49.44 349.316 52.6C349.316 52.82 349.276 53.12 349.236 53.28H339.736C340.036 55.3 341.716 56.8 343.816 56.8C345.356 56.8 346.736 55.92 347.276 54.6H348.956C348.296 56.74 346.256 58.22 343.816 58.22ZM339.736 51.92H347.756C347.456 49.88 345.836 48.38 343.816 48.38C341.716 48.38 340.036 49.88 339.736 51.92Z" fill="#401766"/>
<path d="M354.277 58.22C352.057 58.22 350.677 56.8 350.717 54.68H352.197C352.157 55.98 352.957 56.8 354.297 56.8C355.537 56.8 356.257 56.14 356.257 55.18C356.257 52.72 351.077 53.5 351.077 49.92C351.077 48.14 352.357 46.96 354.297 46.96C356.397 46.96 357.677 48.26 357.597 50.2H356.117C356.157 49.1 355.437 48.42 354.297 48.42C353.177 48.42 352.577 49.08 352.577 49.92C352.577 52.36 357.777 51.58 357.777 55.18C357.777 56.96 356.417 58.22 354.277 58.22Z" fill="#401766"/>
<path d="M373.678 58V56.18C372.718 57.42 371.238 58.22 369.458 58.22C366.298 58.22 363.918 55.74 363.918 52.6C363.918 49.44 366.298 46.96 369.458 46.96C371.218 46.96 372.698 47.74 373.658 49V43.24H375.138L375.178 58H373.678ZM369.558 56.8C371.798 56.8 373.538 55.12 373.678 52.86V52.32C373.538 50.04 371.798 48.38 369.558 48.38C367.218 48.38 365.418 50.18 365.418 52.6C365.418 55 367.218 56.8 369.558 56.8Z" fill="#401766"/>
<path d="M382.996 58.22C379.836 58.22 377.356 55.74 377.356 52.6C377.356 49.44 379.836 46.96 382.996 46.96C386.076 46.96 388.496 49.44 388.496 52.6C388.496 52.82 388.456 53.12 388.416 53.28H378.916C379.216 55.3 380.896 56.8 382.996 56.8C384.536 56.8 385.916 55.92 386.456 54.6H388.136C387.476 56.74 385.436 58.22 382.996 58.22ZM378.916 51.92H386.936C386.636 49.88 385.016 48.38 382.996 48.38C380.896 48.38 379.216 49.88 378.916 51.92Z" fill="#401766"/>
<path d="M395.345 61.44L395.305 47.18H396.805V49.04C397.765 47.76 399.265 46.96 401.045 46.96C404.205 46.96 406.585 49.44 406.585 52.58C406.585 55.74 404.205 58.22 401.045 58.22C399.265 58.22 397.765 57.42 396.825 56.16V61.44H395.345ZM400.945 48.38C398.625 48.38 396.825 50.18 396.825 52.58C396.825 55 398.625 56.8 400.945 56.8C403.285 56.8 405.085 55 405.085 52.58C405.085 50.18 403.285 48.38 400.945 48.38Z" fill="#401766"/>
<path d="M408.762 58V47.18H410.242V49C411.002 47.74 412.322 46.94 413.822 46.94C414.142 46.94 414.442 46.98 414.642 47.04V48.42H413.802C411.822 48.42 410.262 49.7 410.262 52.06V58H408.762Z" fill="#401766"/>
<path d="M420.164 58.22C417.004 58.22 414.524 55.74 414.524 52.6C414.524 49.44 417.004 46.96 420.164 46.96C423.304 46.96 425.784 49.44 425.784 52.6C425.784 55.74 423.304 58.22 420.164 58.22ZM420.164 56.8C422.464 56.8 424.284 54.96 424.284 52.6C424.284 50.22 422.444 48.4 420.144 48.4C417.824 48.4 416.024 50.22 416.024 52.6C416.024 54.96 417.844 56.8 420.164 56.8Z" fill="#401766"/>
<path d="M426.261 61.54H425.321V60.06H426.341C427.381 60.06 427.961 59.4 427.961 58.36V47.18H429.461V58.36C429.461 60.24 428.301 61.54 426.261 61.54ZM427.941 45.38V43.24H429.461V45.38H427.941Z" fill="#401766"/>
<path d="M437.273 58.22C434.113 58.22 431.633 55.74 431.633 52.6C431.633 49.44 434.113 46.96 437.273 46.96C440.353 46.96 442.773 49.44 442.773 52.6C442.773 52.82 442.733 53.12 442.693 53.28H433.193C433.493 55.3 435.173 56.8 437.273 56.8C438.813 56.8 440.193 55.92 440.733 54.6H442.413C441.753 56.74 439.713 58.22 437.273 58.22ZM433.193 51.92H441.213C440.913 49.88 439.293 48.38 437.273 48.38C435.173 48.38 433.493 49.88 433.193 51.92Z" fill="#401766"/>
<path d="M448.013 58.12C445.813 58.12 444.653 56.76 444.653 54.72V44.26H446.153V47.18H449.453V48.64H446.153V54.6C446.153 55.98 446.953 56.64 448.133 56.64H449.453V58.12H448.013Z" fill="#401766"/>
<path d="M454.12 58.22C451.9 58.22 450.52 56.8 450.56 54.68H452.04C452 55.98 452.8 56.8 454.14 56.8C455.38 56.8 456.1 56.14 456.1 55.18C456.1 52.72 450.92 53.5 450.92 49.92C450.92 48.14 452.2 46.96 454.14 46.96C456.24 46.96 457.52 48.26 457.44 50.2H455.96C456 49.1 455.28 48.42 454.14 48.42C453.02 48.42 452.42 49.08 452.42 49.92C452.42 52.36 457.62 51.58 457.62 55.18C457.62 56.96 456.26 58.22 454.12 58.22Z" fill="#401766"/>
<path d="M469.402 58.22C466.242 58.22 463.762 55.74 463.762 52.6C463.762 49.44 466.242 46.96 469.402 46.96C472.482 46.96 474.902 49.44 474.902 52.6C474.902 52.82 474.862 53.12 474.822 53.28H465.322C465.622 55.3 467.302 56.8 469.402 56.8C470.942 56.8 472.322 55.92 472.862 54.6H474.542C473.882 56.74 471.842 58.22 469.402 58.22ZM465.322 51.92H473.342C473.042 49.88 471.422 48.38 469.402 48.38C467.302 48.38 465.622 49.88 465.322 51.92Z" fill="#401766"/>
<path d="M484.624 51.5C484.624 49.66 483.464 48.38 481.664 48.38C479.844 48.38 478.504 49.7 478.504 51.48V58H477.004V47.18H478.504V48.84C479.204 47.68 480.464 46.96 481.944 46.96C484.464 46.96 486.124 48.82 486.124 51.5V58H484.624V51.5Z" fill="#401766"/>
<path d="M203.56 82.12C201.36 82.12 200.2 80.76 200.2 78.72V68.26H201.7V71.18H205V72.64H201.7V78.6C201.7 79.98 202.5 80.64 203.68 80.64H205V82.12H203.56Z" fill="#401766"/>
<path d="M211.59 82.22C208.43 82.22 205.95 79.74 205.95 76.6C205.95 73.44 208.43 70.96 211.59 70.96C214.67 70.96 217.09 73.44 217.09 76.6C217.09 76.82 217.05 77.12 217.01 77.28H207.51C207.81 79.3 209.49 80.8 211.59 80.8C213.13 80.8 214.51 79.92 215.05 78.6H216.73C216.07 80.74 214.03 82.22 211.59 82.22ZM208.79 69.78L210.59 66.54H212.59L214.39 69.78H212.95L211.59 67.28L210.23 69.78H208.79ZM207.51 75.92H215.53C215.23 73.88 213.61 72.38 211.59 72.38C209.49 72.38 207.81 73.88 207.51 75.92Z" fill="#401766"/>
<path d="M222.33 82.12C220.13 82.12 218.97 80.76 218.97 78.72V68.26H220.47V71.18H223.77V72.64H220.47V78.6C220.47 79.98 221.27 80.64 222.45 80.64H223.77V82.12H222.33Z" fill="#401766"/>
<path d="M230.32 82.22C227.16 82.22 224.68 79.74 224.68 76.6C224.68 73.44 227.16 70.96 230.32 70.96C233.4 70.96 235.82 73.44 235.82 76.6C235.82 76.82 235.78 77.12 235.74 77.28H226.24C226.54 79.3 228.22 80.8 230.32 80.8C231.86 80.8 233.24 79.92 233.78 78.6H235.46C234.8 80.74 232.76 82.22 230.32 82.22ZM226.24 75.92H234.26C233.96 73.88 232.34 72.38 230.32 72.38C228.22 72.38 226.54 73.88 226.24 75.92Z" fill="#401766"/>
<path d="M245.609 82L241.289 71.18H242.849L246.589 80.48L250.349 71.18H251.909L247.569 82H245.609Z" fill="#401766"/>
<path d="M253.527 82V71.18H255.027V82H253.527ZM253.507 69.38V67.24H255.027V69.38H253.507Z" fill="#401766"/>
<path d="M262.84 82.22C259.68 82.22 257.2 79.74 257.2 76.6C257.2 73.44 259.68 70.96 262.84 70.96C265.92 70.96 268.34 73.44 268.34 76.6C268.34 76.82 268.3 77.12 268.26 77.28H258.76C259.06 79.3 260.74 80.8 262.84 80.8C264.38 80.8 265.76 79.92 266.3 78.6H267.98C267.32 80.74 265.28 82.22 262.84 82.22ZM258.76 75.92H266.78C266.48 73.88 264.86 72.38 262.84 72.38C260.74 72.38 259.06 73.88 258.76 75.92Z" fill="#401766"/>
<path d="M278.061 75.5C278.061 73.66 276.901 72.38 275.101 72.38C273.281 72.38 271.941 73.7 271.941 75.48V82H270.441V71.18H271.941V72.84C272.641 71.68 273.901 70.96 275.381 70.96C277.901 70.96 279.561 72.82 279.561 75.5V82H278.061V75.5Z" fill="#401766"/>
<path d="M284.999 82.22C282.779 82.22 281.399 80.8 281.439 78.68H282.919C282.879 79.98 283.679 80.8 285.019 80.8C286.259 80.8 286.979 80.14 286.979 79.18C286.979 76.72 281.799 77.5 281.799 73.92C281.799 72.14 283.079 70.96 285.019 70.96C287.119 70.96 288.399 72.26 288.319 74.2H286.839C286.879 73.1 286.159 72.42 285.019 72.42C283.899 72.42 283.299 73.08 283.299 73.92C283.299 76.36 288.499 75.58 288.499 79.18C288.499 80.96 287.139 82.22 284.999 82.22Z" fill="#401766"/>
<path d="M303.081 75.5C303.081 73.66 301.921 72.38 300.121 72.38C298.301 72.38 296.961 73.7 296.961 75.48V82H295.461V71.18H296.961V72.84C297.661 71.68 298.921 70.96 300.401 70.96C302.921 70.96 304.581 72.82 304.581 75.5V82H303.081V75.5Z" fill="#401766"/>
<path d="M312.039 82.22C308.879 82.22 306.399 79.74 306.399 76.6C306.399 73.44 308.879 70.96 312.039 70.96C315.179 70.96 317.659 73.44 317.659 76.6C317.659 79.74 315.179 82.22 312.039 82.22ZM312.039 80.8C314.339 80.8 316.159 78.96 316.159 76.6C316.159 74.22 314.319 72.4 312.019 72.4C309.699 72.4 307.899 74.22 307.899 76.6C307.899 78.96 309.719 80.8 312.039 80.8Z" fill="#401766"/>
<path d="M324.097 82.22C321.337 82.22 319.477 80.36 319.477 77.58V71.18H320.977V77.58C320.977 79.48 322.257 80.76 324.117 80.76C325.917 80.76 327.197 79.48 327.197 77.58V71.18H328.677V77.58C328.677 80.36 326.817 82.22 324.097 82.22Z" fill="#401766"/>
<path d="M334.12 82.22C331.9 82.22 330.52 80.8 330.56 78.68H332.04C332 79.98 332.8 80.8 334.14 80.8C335.38 80.8 336.1 80.14 336.1 79.18C336.1 76.72 330.92 77.5 330.92 73.92C330.92 72.14 332.2 70.96 334.14 70.96C336.24 70.96 337.52 72.26 337.44 74.2H335.96C336 73.1 335.28 72.42 334.14 72.42C333.02 72.42 332.42 73.08 332.42 73.92C332.42 76.36 337.62 75.58 337.62 79.18C337.62 80.96 336.26 82.22 334.12 82.22Z" fill="#401766"/>
<path d="M349.402 82.22C346.242 82.22 343.762 79.74 343.762 76.6C343.762 73.44 346.242 70.96 349.402 70.96C352.482 70.96 354.902 73.44 354.902 76.6C354.902 76.82 354.862 77.12 354.822 77.28H345.322C345.622 79.3 347.302 80.8 349.402 80.8C350.942 80.8 352.322 79.92 352.862 78.6H354.542C353.882 80.74 351.842 82.22 349.402 82.22ZM345.322 75.92H353.342C353.042 73.88 351.422 72.38 349.402 72.38C347.302 72.38 345.622 73.88 345.322 75.92Z" fill="#401766"/>
<path d="M364.624 75.5C364.624 73.66 363.464 72.38 361.664 72.38C359.844 72.38 358.504 73.7 358.504 75.48V82H357.004V71.18H358.504V72.84C359.204 71.68 360.464 70.96 361.944 70.96C364.464 70.96 366.124 72.82 366.124 75.5V82H364.624V75.5Z" fill="#401766"/>
<path d="M373.509 85.44L373.469 71.18H374.969V73.04C375.929 71.76 377.429 70.96 379.209 70.96C382.369 70.96 384.749 73.44 384.749 76.58C384.749 79.74 382.369 82.22 379.209 82.22C377.429 82.22 375.929 81.42 374.989 80.16V85.44H373.509ZM379.109 72.38C376.789 72.38 374.989 74.18 374.989 76.58C374.989 79 376.789 80.8 379.109 80.8C381.449 80.8 383.249 79 383.249 76.58C383.249 74.18 381.449 72.38 379.109 72.38Z" fill="#401766"/>
<path d="M395.885 82V80.18C394.925 81.42 393.445 82.22 391.665 82.22C388.505 82.22 386.125 79.74 386.125 76.6C386.125 73.44 388.505 70.96 391.665 70.96C393.445 70.96 394.925 71.76 395.885 73.02V71.18H397.385V82H395.885ZM391.765 80.8C394.085 80.8 395.885 79 395.885 76.6C395.885 74.18 394.085 72.38 391.765 72.38C389.425 72.38 387.625 74.18 387.625 76.6C387.625 79 389.425 80.8 391.765 80.8Z" fill="#401766"/>
<path d="M400.363 82V71.18H401.843V73C402.603 71.74 403.923 70.94 405.423 70.94C405.743 70.94 406.043 70.98 406.243 71.04V72.42H405.403C403.423 72.42 401.863 73.7 401.863 76.06V82H400.363Z" fill="#401766"/>
<path d="M407.746 82V67.24H409.246V82H407.746Z" fill="#401766"/>
<path d="M417.058 82.22C413.898 82.22 411.418 79.74 411.418 76.6C411.418 73.44 413.898 70.96 417.058 70.96C420.138 70.96 422.558 73.44 422.558 76.6C422.558 76.82 422.518 77.12 422.478 77.28H412.978C413.278 79.3 414.958 80.8 417.058 80.8C418.598 80.8 419.978 79.92 420.518 78.6H422.198C421.538 80.74 419.498 82.22 417.058 82.22ZM412.978 75.92H420.998C420.698 73.88 419.078 72.38 417.058 72.38C414.958 72.38 413.278 73.88 412.978 75.92Z" fill="#401766"/>
<path d="M423.298 82V81.08L428.578 72.62H423.478V71.18H430.478V72.1L425.318 80.56H430.578V82H423.298Z" fill="#401766"/>
<path d="M438.209 67.98H439.709V78.72H438.209V67.98ZM438.049 82V80.14H439.909V82H438.049Z" fill="#401766"/>
<path d="M205.32 106.22C202.16 106.22 199.68 103.74 199.68 100.6C199.68 97.44 202.16 94.96 205.32 94.96C208.46 94.96 210.94 97.44 210.94 100.6C210.94 103.74 208.46 106.22 205.32 106.22ZM205.32 104.8C207.62 104.8 209.44 102.96 209.44 100.6C209.44 98.22 207.6 96.4 205.3 96.4C202.98 96.4 201.18 98.22 201.18 100.6C201.18 102.96 203 104.8 205.32 104.8Z" fill="#401766"/>
<path d="M220.737 99.5C220.737 97.66 219.577 96.38 217.777 96.38C215.957 96.38 214.617 97.7 214.617 99.48V106H213.117V95.18H214.617V96.84C215.317 95.68 216.577 94.96 218.057 94.96C220.577 94.96 222.237 96.82 222.237 99.5V106H220.737V99.5Z" fill="#401766"/>
<path d="M234.402 106.22C231.242 106.22 228.762 103.74 228.762 100.6C228.762 97.44 231.242 94.96 234.402 94.96C237.482 94.96 239.902 97.44 239.902 100.6C239.902 100.82 239.862 101.12 239.822 101.28H230.322C230.622 103.3 232.302 104.8 234.402 104.8C235.942 104.8 237.322 103.92 237.862 102.6H239.542C238.882 104.74 236.842 106.22 234.402 106.22ZM230.322 99.92H238.342C238.042 97.88 236.422 96.38 234.402 96.38C232.302 96.38 230.622 97.88 230.322 99.92Z" fill="#401766"/>
<path d="M244.862 106.22C242.642 106.22 241.262 104.8 241.302 102.68H242.782C242.742 103.98 243.542 104.8 244.882 104.8C246.122 104.8 246.842 104.14 246.842 103.18C246.842 100.72 241.662 101.5 241.662 97.92C241.662 96.14 242.942 94.96 244.882 94.96C246.982 94.96 248.262 96.26 248.182 98.2H246.702C246.742 97.1 246.022 96.42 244.882 96.42C243.762 96.42 243.162 97.08 243.162 97.92C243.162 100.36 248.362 99.58 248.362 103.18C248.362 104.96 247.002 106.22 244.862 106.22Z" fill="#401766"/>
<path d="M253.892 106.12C251.692 106.12 250.532 104.76 250.532 102.72V92.26H252.032V95.18H255.332V96.64H252.032V102.6C252.032 103.98 252.832 104.64 254.012 104.64H255.332V106.12H253.892Z" fill="#401766"/>
<path d="M262.238 106V91.24H263.738V106H262.238Z" fill="#401766"/>
<path d="M275.67 106V104.18C274.71 105.42 273.23 106.22 271.45 106.22C268.29 106.22 265.91 103.74 265.91 100.6C265.91 97.44 268.29 94.96 271.45 94.96C273.23 94.96 274.71 95.76 275.67 97.02V95.18H277.17V106H275.67ZM271.55 104.8C273.87 104.8 275.67 103 275.67 100.6C275.67 98.18 273.87 96.38 271.55 96.38C269.21 96.38 267.41 98.18 267.41 100.6C267.41 103 269.21 104.8 271.55 104.8ZM271.37 93.8L269.47 90.42H271.03L272.79 93.8H271.37Z" fill="#401766"/>
<path d="M284.856 109.44L284.816 95.18H286.316V97.04C287.276 95.76 288.776 94.96 290.556 94.96C293.716 94.96 296.096 97.44 296.096 100.58C296.096 103.74 293.716 106.22 290.556 106.22C288.776 106.22 287.276 105.42 286.336 104.16V109.44H284.856ZM290.456 96.38C288.136 96.38 286.336 98.18 286.336 100.58C286.336 103 288.136 104.8 290.456 104.8C292.796 104.8 294.596 103 294.596 100.58C294.596 98.18 292.796 96.38 290.456 96.38Z" fill="#401766"/>
<path d="M303.113 106.22C299.953 106.22 297.473 103.74 297.473 100.6C297.473 97.44 299.953 94.96 303.113 94.96C306.253 94.96 308.733 97.44 308.733 100.6C308.733 103.74 306.253 106.22 303.113 106.22ZM303.113 104.8C305.413 104.8 307.233 102.96 307.233 100.6C307.233 98.22 305.393 96.4 303.093 96.4C300.773 96.4 298.973 98.22 298.973 100.6C298.973 102.96 300.793 104.8 303.113 104.8Z" fill="#401766"/>
<path d="M315.172 106.22C312.412 106.22 310.552 104.36 310.552 101.58V95.18H312.052V101.58C312.052 103.48 313.332 104.76 315.192 104.76C316.992 104.76 318.272 103.48 318.272 101.58V95.18H319.752V101.58C319.752 104.36 317.892 106.22 315.172 106.22Z" fill="#401766"/>
<path d="M322.453 106V95.18H323.933V97C324.693 95.74 326.013 94.94 327.513 94.94C327.833 94.94 328.133 94.98 328.333 95.04V96.42H327.493C325.513 96.42 323.953 97.7 323.953 100.06V106H322.453Z" fill="#401766"/>
<path d="M337.759 106.12C335.559 106.12 334.399 104.76 334.399 102.72V92.26H335.899V95.18H339.199V96.64H335.899V102.6C335.899 103.98 336.699 104.64 337.879 104.64H339.199V106.12H337.759Z" fill="#401766"/>
<path d="M345.75 106.22C342.59 106.22 340.11 103.74 340.11 100.6C340.11 97.44 342.59 94.96 345.75 94.96C348.83 94.96 351.25 97.44 351.25 100.6C351.25 100.82 351.21 101.12 351.17 101.28H341.67C341.97 103.3 343.65 104.8 345.75 104.8C347.29 104.8 348.67 103.92 349.21 102.6H350.89C350.23 104.74 348.19 106.22 345.75 106.22ZM341.67 99.92H349.69C349.39 97.88 347.77 96.38 345.75 96.38C343.65 96.38 341.97 97.88 341.67 99.92Z" fill="#401766"/>
<path d="M361.039 106L356.719 95.18H358.279L362.019 104.48L365.779 95.18H367.339L362.999 106H361.039Z" fill="#401766"/>
<path d="M373.465 106.22C370.305 106.22 367.825 103.74 367.825 100.6C367.825 97.44 370.305 94.96 373.465 94.96C376.545 94.96 378.965 97.44 378.965 100.6C378.965 100.82 378.925 101.12 378.885 101.28H369.385C369.685 103.3 371.365 104.8 373.465 104.8C375.005 104.8 376.385 103.92 376.925 102.6H378.605C377.945 104.74 375.905 106.22 373.465 106.22ZM369.385 99.92H377.405C377.105 97.88 375.485 96.38 373.465 96.38C371.365 96.38 369.685 97.88 369.385 99.92Z" fill="#401766"/>
<path d="M388.686 99.5C388.686 97.66 387.526 96.38 385.726 96.38C383.906 96.38 382.566 97.7 382.566 99.48V106H381.066V95.18H382.566V96.84C383.266 95.68 384.526 94.96 386.006 94.96C388.526 94.96 390.186 96.82 390.186 99.5V106H388.686V99.5Z" fill="#401766"/>
<path d="M392.883 106V95.18H394.383V106H392.883ZM392.863 93.38V91.24H394.383V93.38H392.863Z" fill="#401766"/>
<path d="M397.355 106V95.18H398.835V97C399.595 95.74 400.915 94.94 402.415 94.94C402.735 94.94 403.035 94.98 403.235 95.04V96.42H402.395C400.415 96.42 398.855 97.7 398.855 100.06V106H397.355Z" fill="#401766"/>
<path d="M414.422 106.22C411.262 106.22 408.782 103.74 408.782 100.6C408.782 97.44 411.262 94.96 414.422 94.96C417.502 94.96 419.922 97.44 419.922 100.6C419.922 100.82 419.882 101.12 419.842 101.28H410.342C410.642 103.3 412.322 104.8 414.422 104.8C415.962 104.8 417.342 103.92 417.882 102.6H419.562C418.902 104.74 416.862 106.22 414.422 106.22ZM410.342 99.92H418.362C418.062 97.88 416.442 96.38 414.422 96.38C412.322 96.38 410.642 97.88 410.342 99.92Z" fill="#401766"/>
<path d="M429.643 99.5C429.643 97.66 428.483 96.38 426.683 96.38C424.863 96.38 423.523 97.7 423.523 99.48V106H422.023V95.18H423.523V96.84C424.223 95.68 425.483 94.96 426.963 94.96C429.483 94.96 431.143 96.82 431.143 99.5V106H429.643V99.5Z" fill="#401766"/>
<path d="M447.428 106V104.18C446.468 105.42 444.988 106.22 443.208 106.22C440.048 106.22 437.668 103.74 437.668 100.6C437.668 97.44 440.048 94.96 443.208 94.96C444.988 94.96 446.468 95.76 447.428 97.02V95.18H448.928V106H447.428ZM443.308 104.8C445.628 104.8 447.428 103 447.428 100.6C447.428 98.18 445.628 96.38 443.308 96.38C440.968 96.38 439.168 98.18 439.168 100.6C439.168 103 440.968 104.8 443.308 104.8Z" fill="#401766"/>
<path d="M451.906 106V95.18H453.406V106H451.906ZM451.886 93.38V91.24H453.406V93.38H451.886Z" fill="#401766"/>
<path d="M465.338 106V104.18C464.378 105.42 462.898 106.22 461.118 106.22C457.958 106.22 455.578 103.74 455.578 100.6C455.578 97.44 457.958 94.96 461.118 94.96C462.878 94.96 464.358 95.74 465.318 97V91.24H466.798L466.838 106H465.338ZM461.218 104.8C463.458 104.8 465.198 103.12 465.338 100.86V100.32C465.198 98.04 463.458 96.38 461.218 96.38C458.878 96.38 457.078 98.18 457.078 100.6C457.078 103 458.878 104.8 461.218 104.8Z" fill="#401766"/>
<path d="M474.656 106.22C471.496 106.22 469.016 103.74 469.016 100.6C469.016 97.44 471.496 94.96 474.656 94.96C477.736 94.96 480.156 97.44 480.156 100.6C480.156 100.82 480.116 101.12 480.076 101.28H470.576C470.876 103.3 472.556 104.8 474.656 104.8C476.196 104.8 477.576 103.92 478.116 102.6H479.796C479.136 104.74 477.096 106.22 474.656 106.22ZM470.576 99.92H478.596C478.296 97.88 476.676 96.38 474.656 96.38C472.556 96.38 470.876 97.88 470.576 99.92Z" fill="#401766"/>
<path d="M488.705 95.18V97.04H486.845V95.18H488.705ZM487.205 104.3H488.925L487.205 108.72H485.905L487.205 104.3Z" fill="#401766"/>
<path d="M490.892 90.94C492.972 93.12 494.492 96.5 494.492 100.32C494.492 104.16 492.972 107.52 490.892 109.72L489.812 108.94C491.713 106.8 492.992 103.84 492.992 100.32C492.992 96.82 491.713 93.84 489.812 91.72L490.892 90.94Z" fill="#401766"/>
</g>
<defs>
<clipPath id="clip0_161_3121">
<rect width="182" height="190.434" fill="white" transform="translate(0 72)"/>
</clipPath>
<clipPath id="clip1_161_3121">
<rect width="402" height="183" fill="white" transform="matrix(-1 0 0 1 525 0)"/>
</clipPath>
</defs>
</svg>
