<svg width="40" height="39" viewBox="0 0 40 39" fill="none" xmlns="http://www.w3.org/2000/svg">
<g clip-path="url(#clip0_313_2175)">
<path d="M39.1115 11.7001C39.1115 11.7001 38.7307 9.0112 37.5576 7.83054C36.0723 6.27663 34.4117 6.26902 33.65 6.17761C28.1961 5.78152 20.0076 5.78152 20.0076 5.78152H19.9924C19.9924 5.78152 11.8039 5.78152 6.35 6.17761C5.58828 6.26902 3.92773 6.27663 2.44238 7.83054C1.26934 9.0112 0.896094 11.7001 0.896094 11.7001C0.896094 11.7001 0.5 14.8612 0.5 18.0147V20.9702C0.5 24.1237 0.888477 27.2848 0.888477 27.2848C0.888477 27.2848 1.26934 29.9737 2.43477 31.1544C3.92012 32.7083 5.87012 32.655 6.73848 32.8225C9.86152 33.1196 20 33.211 20 33.211C20 33.211 28.1961 33.1958 33.65 32.8073C34.4117 32.7159 36.0723 32.7083 37.5576 31.1544C38.7307 29.9737 39.1115 27.2848 39.1115 27.2848C39.1115 27.2848 39.5 24.1313 39.5 20.9702V18.0147C39.5 14.8612 39.1115 11.7001 39.1115 11.7001ZM15.9705 24.5579V13.5968L26.5051 19.0964L15.9705 24.5579Z" fill="white"/>
</g>
<defs>
<clipPath id="clip0_313_2175">
<rect width="39" height="39" fill="white" transform="translate(0.5)"/>
</clipPath>
</defs>
</svg>
